<?xml version="1.0" encoding="UTF-8" standalone="no"?>
<!DOCTYPE svg PUBLIC "-//W3C//DTD SVG 1.1//EN"
 "http://www.w3.org/Graphics/SVG/1.1/DTD/svg11.dtd">
<!-- Generated by graphviz version 2.38.0 (20140413.2041)
 -->
<!-- Title: chapters Pages: 1 -->
<svg width="422pt" height="514pt"
 viewBox="0.00 0.00 422.10 513.91" xmlns="http://www.w3.org/2000/svg" xmlns:xlink="http://www.w3.org/1999/xlink">
<g id="graph0" class="graph" transform="scale(1 1) rotate(0) translate(4 509.914)">
<title>chapters</title>
<polygon fill="white" stroke="none" points="-4,4 -4,-509.914 418.101,-509.914 418.101,4 -4,4"/>
<!-- derivatives -->
<g id="node1" class="node"><title>derivatives</title>
<ellipse fill="none" stroke="black" cx="216.621" cy="-479.044" rx="51.1914" ry="18"/>
<text text-anchor="middle" x="216.621" y="-475.344" font-family="Times,serif" font-size="14.00">Derivatives</text>
</g>
<!-- integrals -->
<g id="node4" class="node"><title>integrals</title>
<ellipse fill="none" stroke="black" cx="146.621" cy="-398.174" rx="41.6928" ry="18"/>
<text text-anchor="middle" x="146.621" y="-394.474" font-family="Times,serif" font-size="14.00">Integrals</text>
</g>
<!-- derivatives&#45;&gt;integrals -->
<g id="edge8" class="edge"><title>derivatives&#45;&gt;integrals</title>
<path fill="none" stroke="black" d="M202.117,-461.702C192.197,-450.524 178.884,-435.524 167.784,-423.018"/>
<polygon fill="black" stroke="black" points="170.123,-420.381 160.867,-415.225 164.888,-425.027 170.123,-420.381"/>
</g>
<!-- more_derivatives -->
<g id="node6" class="node"><title>more_derivatives</title>
<ellipse fill="none" stroke="black" cx="181.621" cy="-317.304" rx="55.7232" ry="26.7407"/>
<text text-anchor="middle" x="181.621" y="-321.104" font-family="Times,serif" font-size="14.00">More</text>
<text text-anchor="middle" x="181.621" y="-306.104" font-family="Times,serif" font-size="14.00">Derivatives</text>
</g>
<!-- derivatives&#45;&gt;more_derivatives -->
<g id="edge6" class="edge"><title>derivatives&#45;&gt;more_derivatives</title>
<path fill="none" stroke="black" d="M213.641,-461.004C210.14,-441.426 203.997,-408.367 197.621,-380.174 195.686,-371.618 193.421,-362.446 191.213,-353.854"/>
<polygon fill="black" stroke="black" points="194.581,-352.899 188.671,-344.106 187.807,-354.665 194.581,-352.899"/>
</g>
<!-- more_geometry_and_trig -->
<g id="node7" class="node"><title>more_geometry_and_trig</title>
<ellipse fill="none" stroke="black" cx="343.621" cy="-216.957" rx="50.41" ry="37.4533"/>
<text text-anchor="middle" x="343.621" y="-228.257" font-family="Times,serif" font-size="14.00">More</text>
<text text-anchor="middle" x="343.621" y="-213.257" font-family="Times,serif" font-size="14.00">Geometry</text>
<text text-anchor="middle" x="343.621" y="-198.257" font-family="Times,serif" font-size="14.00">and Trig</text>
</g>
<!-- derivatives&#45;&gt;more_geometry_and_trig -->
<g id="edge2" class="edge"><title>derivatives&#45;&gt;more_geometry_and_trig</title>
<path fill="none" stroke="black" d="M243.398,-463.502C278.862,-442.522 339.813,-400.066 364.621,-344.174 376.078,-318.363 370.978,-287.062 362.939,-262.089"/>
<polygon fill="black" stroke="black" points="366.199,-260.806 359.615,-252.506 359.586,-263.1 366.199,-260.806"/>
</g>
<!-- explog -->
<g id="node8" class="node"><title>explog</title>
<ellipse fill="none" stroke="black" cx="149.621" cy="-216.957" rx="88.2768" ry="26.7407"/>
<text text-anchor="middle" x="149.621" y="-220.757" font-family="Times,serif" font-size="14.00">Exponent Functions</text>
<text text-anchor="middle" x="149.621" y="-205.757" font-family="Times,serif" font-size="14.00">and Logarithms</text>
</g>
<!-- derivatives&#45;&gt;explog -->
<g id="edge7" class="edge"><title>derivatives&#45;&gt;explog</title>
<path fill="none" stroke="black" d="M177.805,-467.031C127.043,-450.192 40.7958,-412.565 8.62131,-344.174 -1.5462,-322.561 -3.82203,-310.821 8.62131,-290.434 23.3717,-266.267 49.0343,-249.819 74.4578,-238.789"/>
<polygon fill="black" stroke="black" points="75.8651,-241.995 83.7929,-234.967 73.2124,-235.517 75.8651,-241.995"/>
</g>
<!-- taylor -->
<g id="node9" class="node"><title>taylor</title>
<ellipse fill="none" stroke="black" cx="353.621" cy="-116.61" rx="60.2083" ry="26.7407"/>
<text text-anchor="middle" x="353.621" y="-120.41" font-family="Times,serif" font-size="14.00">Taylor</text>
<text text-anchor="middle" x="353.621" y="-105.41" font-family="Times,serif" font-size="14.00">Polynomials</text>
</g>
<!-- derivatives&#45;&gt;taylor -->
<g id="edge4" class="edge"><title>derivatives&#45;&gt;taylor</title>
<path fill="none" stroke="black" d="M248.188,-464.817C280.004,-451.05 326.382,-429.653 340.621,-416.174 367.364,-390.858 368.176,-378.456 381.621,-344.174 408.563,-275.478 426.875,-249.17 402.621,-179.48 398.79,-168.471 392.093,-157.945 384.859,-148.799"/>
<polygon fill="black" stroke="black" points="387.534,-146.542 378.421,-141.138 382.175,-151.045 387.534,-146.542"/>
</g>
<!-- geometry_and_trig -->
<g id="node2" class="node"><title>geometry_and_trig</title>
<ellipse fill="none" stroke="black" cx="305.621" cy="-317.304" rx="50.41" ry="26.7407"/>
<text text-anchor="middle" x="305.621" y="-321.104" font-family="Times,serif" font-size="14.00">Geometry</text>
<text text-anchor="middle" x="305.621" y="-306.104" font-family="Times,serif" font-size="14.00">and Trig</text>
</g>
<!-- geometry_and_trig&#45;&gt;more_geometry_and_trig -->
<g id="edge1" class="edge"><title>geometry_and_trig&#45;&gt;more_geometry_and_trig</title>
<path fill="none" stroke="black" d="M315.506,-290.721C318.805,-282.184 322.584,-272.404 326.278,-262.841"/>
<polygon fill="black" stroke="black" points="329.585,-263.995 329.924,-253.406 323.055,-261.472 329.585,-263.995"/>
</g>
<!-- eulerformula -->
<g id="node10" class="node"><title>eulerformula</title>
<ellipse fill="red" stroke="black" cx="265.621" cy="-26.8701" rx="98.0761" ry="26.7407"/>
<text text-anchor="middle" x="265.621" y="-30.6701" font-family="Times,serif" font-size="14.00">Head Explosion Zone:</text>
<text text-anchor="middle" x="265.621" y="-15.6701" font-family="Times,serif" font-size="14.00">Euler&#39;s Formula</text>
</g>
<!-- geometry_and_trig&#45;&gt;eulerformula -->
<g id="edge10" class="edge"><title>geometry_and_trig&#45;&gt;eulerformula</title>
<path fill="none" stroke="black" d="M295.405,-290.805C291.402,-279.79 287.167,-266.649 284.621,-254.434 270.83,-188.252 266.988,-109.216 265.955,-64.1486"/>
<polygon fill="black" stroke="black" points="269.452,-63.9185 265.758,-53.9885 262.453,-64.0548 269.452,-63.9185"/>
</g>
<!-- numbertheory -->
<g id="node3" class="node"><title>numbertheory</title>
<ellipse fill="none" stroke="black" cx="329.621" cy="-479.044" rx="43.6818" ry="26.7407"/>
<text text-anchor="middle" x="329.621" y="-482.844" font-family="Times,serif" font-size="14.00">Number</text>
<text text-anchor="middle" x="329.621" y="-467.844" font-family="Times,serif" font-size="14.00">Theory</text>
</g>
<!-- more_integrals -->
<g id="node5" class="node"><title>more_integrals</title>
<ellipse fill="none" stroke="black" cx="62.6213" cy="-317.304" rx="45.011" ry="26.7407"/>
<text text-anchor="middle" x="62.6213" y="-321.104" font-family="Times,serif" font-size="14.00">More</text>
<text text-anchor="middle" x="62.6213" y="-306.104" font-family="Times,serif" font-size="14.00">Integrals</text>
</g>
<!-- integrals&#45;&gt;more_integrals -->
<g id="edge9" class="edge"><title>integrals&#45;&gt;more_integrals</title>
<path fill="none" stroke="black" d="M130.026,-381.591C119.652,-371.851 105.966,-359.001 93.6376,-347.426"/>
<polygon fill="black" stroke="black" points="95.8648,-344.716 86.1789,-340.422 91.0733,-349.819 95.8648,-344.716"/>
</g>
<!-- integrals&#45;&gt;more_derivatives -->
<g id="edge14" class="edge"><title>integrals&#45;&gt;more_derivatives</title>
<path fill="none" stroke="none" d="M154.044,-380.447C157.596,-372.444 161.987,-362.547 166.214,-353.023"/>
<polygon fill="none" stroke="none" points="169.491,-354.266 170.348,-343.706 163.093,-351.427 169.491,-354.266"/>
</g>
<!-- more_derivatives&#45;&gt;more_geometry_and_trig -->
<g id="edge13" class="edge"><title>more_derivatives&#45;&gt;more_geometry_and_trig</title>
<path fill="none" stroke="black" stroke-dasharray="5,2" d="M215.582,-295.687C239.089,-281.416 270.684,-262.236 296.607,-246.498"/>
<polygon fill="black" stroke="black" points="298.429,-249.487 305.161,-241.306 294.796,-243.503 298.429,-249.487"/>
</g>
<!-- more_derivatives&#45;&gt;explog -->
<g id="edge12" class="edge"><title>more_derivatives&#45;&gt;explog</title>
<path fill="none" stroke="black" stroke-dasharray="5,2" d="M173.297,-290.721C169.586,-279.314 165.152,-265.688 161.13,-253.328"/>
<polygon fill="black" stroke="black" points="164.437,-252.179 158.015,-243.753 157.781,-254.345 164.437,-252.179"/>
</g>
<!-- more_geometry_and_trig&#45;&gt;taylor -->
<g id="edge3" class="edge"><title>more_geometry_and_trig&#45;&gt;taylor</title>
<path fill="none" stroke="black" d="M347.345,-179.336C348.196,-170.965 349.1,-162.074 349.949,-153.725"/>
<polygon fill="black" stroke="black" points="353.457,-153.821 350.987,-143.518 346.493,-153.113 353.457,-153.821"/>
</g>
<!-- explog&#45;&gt;eulerformula -->
<g id="edge11" class="edge"><title>explog&#45;&gt;eulerformula</title>
<path fill="none" stroke="black" d="M165.507,-190.199C185.929,-157.087 221.462,-99.472 244.242,-62.5359"/>
<polygon fill="black" stroke="black" points="247.471,-63.9671 249.741,-53.6184 241.513,-60.2926 247.471,-63.9671"/>
</g>
<!-- taylor&#45;&gt;eulerformula -->
<g id="edge5" class="edge"><title>taylor&#45;&gt;eulerformula</title>
<path fill="none" stroke="black" d="M329.575,-91.6348C319.911,-81.9992 308.617,-70.7391 298.233,-60.3852"/>
<polygon fill="black" stroke="black" points="300.421,-57.6243 290.868,-53.0422 295.478,-62.5814 300.421,-57.6243"/>
</g>
</g>
</svg>
