<?xml version="1.0" encoding="UTF-8" standalone="no"?>
<!DOCTYPE svg PUBLIC "-//W3C//DTD SVG 1.1//EN"
 "http://www.w3.org/Graphics/SVG/1.1/DTD/svg11.dtd">
<!-- Generated by graphviz version 2.36.0 (20140111.2315)
 -->
<!-- Title: chapters Pages: 1 -->
<svg width="422pt" height="516pt"
 viewBox="0.00 0.00 422.24 516.00" xmlns="http://www.w3.org/2000/svg" xmlns:xlink="http://www.w3.org/1999/xlink">
<g id="graph0" class="graph" transform="scale(1 1) rotate(0) translate(4 512)">
<title>chapters</title>
<polygon fill="white" stroke="none" points="-4,4 -4,-512 418.241,-512 418.241,4 -4,4"/>
<!-- derivatives -->
<g id="node1" class="node"><title>derivatives</title>
<ellipse fill="none" stroke="black" cx="216.65" cy="-481" rx="51.0191" ry="18"/>
<text text-anchor="middle" x="216.65" y="-477.3" font-family="Times,serif" font-size="14.00">Derivatives</text>
</g>
<!-- integrals -->
<g id="node4" class="node"><title>integrals</title>
<ellipse fill="none" stroke="black" cx="146.65" cy="-400" rx="41.394" ry="18"/>
<text text-anchor="middle" x="146.65" y="-396.3" font-family="Times,serif" font-size="14.00">Integrals</text>
</g>
<!-- derivatives&#45;&gt;integrals -->
<g id="edge8" class="edge"><title>derivatives&#45;&gt;integrals</title>
<path fill="none" stroke="black" d="M202.146,-463.631C192.225,-452.435 178.912,-437.41 167.812,-424.884"/>
<polygon fill="black" stroke="black" points="170.147,-422.241 160.896,-417.078 164.908,-426.883 170.147,-422.241"/>
</g>
<!-- more_derivatives -->
<g id="node6" class="node"><title>more_derivatives</title>
<ellipse fill="none" stroke="black" cx="181.65" cy="-319" rx="55.2936" ry="26.7407"/>
<text text-anchor="middle" x="181.65" y="-322.8" font-family="Times,serif" font-size="14.00">More</text>
<text text-anchor="middle" x="181.65" y="-307.8" font-family="Times,serif" font-size="14.00">Derivatives</text>
</g>
<!-- derivatives&#45;&gt;more_derivatives -->
<g id="edge2" class="edge"><title>derivatives&#45;&gt;more_derivatives</title>
<path fill="none" stroke="black" d="M213.367,-462.964C209.548,-443.384 202.96,-410.304 196.65,-382 194.745,-373.454 192.586,-364.273 190.511,-355.665"/>
<polygon fill="black" stroke="black" points="193.899,-354.784 188.135,-345.894 187.097,-356.438 193.899,-354.784"/>
</g>
<!-- more_geometry_and_trig -->
<g id="node7" class="node"><title>more_geometry_and_trig</title>
<ellipse fill="none" stroke="black" cx="343.65" cy="-218" rx="50.3073" ry="37.4533"/>
<text text-anchor="middle" x="343.65" y="-229.3" font-family="Times,serif" font-size="14.00">More</text>
<text text-anchor="middle" x="343.65" y="-214.3" font-family="Times,serif" font-size="14.00">Geometry</text>
<text text-anchor="middle" x="343.65" y="-199.3" font-family="Times,serif" font-size="14.00">and Trig</text>
</g>
<!-- derivatives&#45;&gt;more_geometry_and_trig -->
<g id="edge3" class="edge"><title>derivatives&#45;&gt;more_geometry_and_trig</title>
<path fill="none" stroke="black" d="M243.427,-465.437C278.892,-444.429 339.844,-401.923 364.65,-346 376.169,-320.03 371.07,-288.535 363.016,-263.407"/>
<polygon fill="black" stroke="black" points="366.258,-262.073 359.684,-253.764 359.642,-264.359 366.258,-262.073"/>
</g>
<!-- explog -->
<g id="node8" class="node"><title>explog</title>
<ellipse fill="none" stroke="black" cx="149.65" cy="-218" rx="88.0829" ry="26.7407"/>
<text text-anchor="middle" x="149.65" y="-221.8" font-family="Times,serif" font-size="14.00">Exponent Functions</text>
<text text-anchor="middle" x="149.65" y="-206.8" font-family="Times,serif" font-size="14.00">and Logarithms</text>
</g>
<!-- derivatives&#45;&gt;explog -->
<g id="edge7" class="edge"><title>derivatives&#45;&gt;explog</title>
<path fill="none" stroke="black" d="M177.836,-468.963C127.077,-452.092 40.8335,-414.41 8.64986,-346 -1.56682,-324.283 -3.82362,-312.504 8.64986,-292 23.4509,-267.67 49.2695,-251.088 74.8024,-239.964"/>
<polygon fill="black" stroke="black" points="76.259,-243.149 84.1755,-236.108 73.5958,-236.675 76.259,-243.149"/>
</g>
<!-- taylor -->
<g id="node9" class="node"><title>taylor</title>
<ellipse fill="none" stroke="black" cx="353.65" cy="-117" rx="60.1562" ry="26.7407"/>
<text text-anchor="middle" x="353.65" y="-120.8" font-family="Times,serif" font-size="14.00">Taylor</text>
<text text-anchor="middle" x="353.65" y="-105.8" font-family="Times,serif" font-size="14.00">Polynomials</text>
</g>
<!-- derivatives&#45;&gt;taylor -->
<g id="edge5" class="edge"><title>derivatives&#45;&gt;taylor</title>
<path fill="none" stroke="black" d="M248.216,-466.739C280.033,-452.938 326.41,-431.491 340.65,-418 367.382,-392.674 368.215,-380.287 381.65,-346 408.78,-276.76 427.057,-250.246 402.65,-180 398.819,-168.974 392.122,-158.429 384.888,-149.263"/>
<polygon fill="black" stroke="black" points="387.558,-147 378.451,-141.586 382.194,-151.497 387.558,-147"/>
</g>
<!-- geometry_and_trig -->
<g id="node2" class="node"><title>geometry_and_trig</title>
<ellipse fill="none" stroke="black" cx="305.65" cy="-319" rx="50.3073" ry="26.7407"/>
<text text-anchor="middle" x="305.65" y="-322.8" font-family="Times,serif" font-size="14.00">Geometry</text>
<text text-anchor="middle" x="305.65" y="-307.8" font-family="Times,serif" font-size="14.00">and Trig</text>
</g>
<!-- geometry_and_trig&#45;&gt;more_geometry_and_trig -->
<g id="edge1" class="edge"><title>geometry_and_trig&#45;&gt;more_geometry_and_trig</title>
<path fill="none" stroke="black" d="M315.436,-292.505C318.835,-283.648 322.754,-273.439 326.569,-263.5"/>
<polygon fill="black" stroke="black" points="329.858,-264.698 330.174,-254.108 323.323,-262.19 329.858,-264.698"/>
</g>
<!-- eulerformula -->
<g id="node10" class="node"><title>eulerformula</title>
<ellipse fill="red" stroke="black" cx="265.65" cy="-27" rx="97.9325" ry="26.7407"/>
<text text-anchor="middle" x="265.65" y="-30.8" font-family="Times,serif" font-size="14.00">Head Explosion Zone:</text>
<text text-anchor="middle" x="265.65" y="-15.8" font-family="Times,serif" font-size="14.00">Euler&#39;s Formula</text>
</g>
<!-- geometry_and_trig&#45;&gt;eulerformula -->
<g id="edge10" class="edge"><title>geometry_and_trig&#45;&gt;eulerformula</title>
<path fill="none" stroke="black" d="M295.431,-292.447C291.428,-281.408 287.193,-268.24 284.65,-256 270.773,-189.213 266.964,-109.429 265.96,-64.1399"/>
<polygon fill="black" stroke="black" points="269.456,-63.8699 265.769,-53.9372 262.457,-64.0011 269.456,-63.8699"/>
</g>
<!-- numbertheory -->
<g id="node3" class="node"><title>numbertheory</title>
<ellipse fill="none" stroke="black" cx="329.65" cy="-481" rx="43.263" ry="26.7407"/>
<text text-anchor="middle" x="329.65" y="-484.8" font-family="Times,serif" font-size="14.00">Number</text>
<text text-anchor="middle" x="329.65" y="-469.8" font-family="Times,serif" font-size="14.00">Theory</text>
</g>
<!-- more_integrals -->
<g id="node5" class="node"><title>more_integrals</title>
<ellipse fill="none" stroke="black" cx="62.6499" cy="-319" rx="44.8843" ry="26.7407"/>
<text text-anchor="middle" x="62.6499" y="-322.8" font-family="Times,serif" font-size="14.00">More</text>
<text text-anchor="middle" x="62.6499" y="-307.8" font-family="Times,serif" font-size="14.00">Integrals</text>
</g>
<!-- integrals&#45;&gt;more_integrals -->
<g id="edge9" class="edge"><title>integrals&#45;&gt;more_integrals</title>
<path fill="none" stroke="black" d="M130.054,-383.392C119.68,-373.636 105.994,-360.764 93.6661,-349.17"/>
<polygon fill="black" stroke="black" points="95.8898,-346.457 86.2074,-342.155 91.0941,-351.556 95.8898,-346.457"/>
</g>
<!-- integrals&#45;&gt;more_derivatives -->
<g id="edge14" class="edge"><title>integrals&#45;&gt;more_derivatives</title>
<path fill="none" stroke="none" d="M154.072,-382.246C157.624,-374.229 162.016,-364.316 166.243,-354.776"/>
<polygon fill="none" stroke="none" points="169.526,-356.005 170.377,-345.445 163.126,-353.17 169.526,-356.005"/>
</g>
<!-- more_derivatives&#45;&gt;more_geometry_and_trig -->
<g id="edge13" class="edge"><title>more_derivatives&#45;&gt;more_geometry_and_trig</title>
<path fill="none" stroke="black" d="M215.216,-297.487C238.78,-283.087 270.614,-263.633 296.692,-247.697"/>
<polygon fill="black" stroke="black" points="298.587,-250.64 305.295,-242.439 294.937,-244.667 298.587,-250.64"/>
</g>
<!-- more_derivatives&#45;&gt;explog -->
<g id="edge12" class="edge"><title>more_derivatives&#45;&gt;explog</title>
<path fill="none" stroke="black" d="M173.326,-292.247C169.614,-280.765 165.181,-267.048 161.159,-254.606"/>
<polygon fill="black" stroke="black" points="164.449,-253.406 158.043,-244.968 157.789,-255.559 164.449,-253.406"/>
</g>
<!-- more_geometry_and_trig&#45;&gt;taylor -->
<g id="edge4" class="edge"><title>more_geometry_and_trig&#45;&gt;taylor</title>
<path fill="none" stroke="black" d="M347.345,-180.417C348.215,-171.802 349.142,-162.626 350.01,-154.035"/>
<polygon fill="black" stroke="black" points="353.508,-154.225 351.031,-143.924 346.544,-153.522 353.508,-154.225"/>
</g>
<!-- explog&#45;&gt;eulerformula -->
<g id="edge11" class="edge"><title>explog&#45;&gt;eulerformula</title>
<path fill="none" stroke="black" d="M165.294,-191.511C185.704,-158.257 221.499,-99.9348 244.365,-62.679"/>
<polygon fill="black" stroke="black" points="247.635,-64.0428 249.883,-53.6892 241.669,-60.3811 247.635,-64.0428"/>
</g>
<!-- taylor&#45;&gt;eulerformula -->
<g id="edge6" class="edge"><title>taylor&#45;&gt;eulerformula</title>
<path fill="none" stroke="black" d="M329.603,-91.9536C319.939,-82.2895 308.646,-70.996 298.261,-60.6114"/>
<polygon fill="black" stroke="black" points="300.443,-57.8429 290.897,-53.2467 295.493,-62.7927 300.443,-57.8429"/>
</g>
</g>
</svg>
