<?xml version="1.0" encoding="UTF-8" standalone="no"?>
<!DOCTYPE svg PUBLIC "-//W3C//DTD SVG 1.1//EN"
 "http://www.w3.org/Graphics/SVG/1.1/DTD/svg11.dtd">
<!-- Generated by graphviz version 2.38.0 (20140413.2041)
 -->
<!-- Title: chapters Pages: 1 -->
<svg width="471pt" height="352pt"
 viewBox="0.00 0.00 471.46 352.17" xmlns="http://www.w3.org/2000/svg" xmlns:xlink="http://www.w3.org/1999/xlink">
<g id="graph0" class="graph" transform="scale(1 1) rotate(0) translate(4 348.174)">
<title>chapters</title>
<polygon fill="white" stroke="none" points="-4,4 -4,-348.174 467.459,-348.174 467.459,4 -4,4"/>
<!-- derivatives -->
<g id="node1" class="node"><title>derivatives</title>
<ellipse fill="none" stroke="black" cx="256.255" cy="-317.304" rx="51.1914" ry="18"/>
<text text-anchor="middle" x="256.255" y="-313.604" font-family="Times,serif" font-size="14.00">Derivatives</text>
</g>
<!-- integrals -->
<g id="node3" class="node"><title>integrals</title>
<ellipse fill="none" stroke="black" cx="57.2548" cy="-216.957" rx="41.6928" ry="18"/>
<text text-anchor="middle" x="57.2548" y="-213.257" font-family="Times,serif" font-size="14.00">Integrals</text>
</g>
<!-- derivatives&#45;&gt;integrals -->
<g id="edge5" class="edge"><title>derivatives&#45;&gt;integrals</title>
<path fill="none" stroke="black" d="M220.534,-304.183C189.641,-293.072 144.249,-275.22 107.255,-254.434 99.4446,-250.045 91.4182,-244.646 84.1449,-239.36"/>
<polygon fill="black" stroke="black" points="86.1144,-236.463 76.0107,-233.274 81.9209,-242.068 86.1144,-236.463"/>
</g>
<!-- more_derivatives -->
<g id="node5" class="node"><title>more_derivatives</title>
<ellipse fill="none" stroke="black" cx="172.255" cy="-216.957" rx="55.7232" ry="26.7407"/>
<text text-anchor="middle" x="172.255" y="-220.757" font-family="Times,serif" font-size="14.00">More</text>
<text text-anchor="middle" x="172.255" y="-205.757" font-family="Times,serif" font-size="14.00">Derivatives</text>
</g>
<!-- derivatives&#45;&gt;more_derivatives -->
<g id="edge3" class="edge"><title>derivatives&#45;&gt;more_derivatives</title>
<path fill="none" stroke="black" d="M242.005,-299.62C230.42,-286.057 213.737,-266.524 199.591,-249.962"/>
<polygon fill="black" stroke="black" points="202.04,-247.44 192.884,-242.11 196.718,-251.987 202.04,-247.44"/>
</g>
<!-- more_geometry_and_trig -->
<g id="node6" class="node"><title>more_geometry_and_trig</title>
<ellipse fill="none" stroke="black" cx="372.255" cy="-216.957" rx="50.41" ry="37.4533"/>
<text text-anchor="middle" x="372.255" y="-228.257" font-family="Times,serif" font-size="14.00">More</text>
<text text-anchor="middle" x="372.255" y="-213.257" font-family="Times,serif" font-size="14.00">Geometry</text>
<text text-anchor="middle" x="372.255" y="-198.257" font-family="Times,serif" font-size="14.00">and Trig</text>
</g>
<!-- derivatives&#45;&gt;more_geometry_and_trig -->
<g id="edge2" class="edge"><title>derivatives&#45;&gt;more_geometry_and_trig</title>
<path fill="none" stroke="black" d="M274.892,-300.503C290.203,-287.522 312.442,-268.667 331.802,-252.254"/>
<polygon fill="black" stroke="black" points="334.25,-254.767 339.614,-245.63 329.723,-249.427 334.25,-254.767"/>
</g>
<!-- explog -->
<g id="node7" class="node"><title>explog</title>
<ellipse fill="none" stroke="black" cx="334.255" cy="-116.61" rx="88.2768" ry="26.7407"/>
<text text-anchor="middle" x="334.255" y="-120.41" font-family="Times,serif" font-size="14.00">Exponent Functions</text>
<text text-anchor="middle" x="334.255" y="-105.41" font-family="Times,serif" font-size="14.00">and Logarithms</text>
</g>
<!-- derivatives&#45;&gt;explog -->
<g id="edge4" class="edge"><title>derivatives&#45;&gt;explog</title>
<path fill="none" stroke="black" d="M262.905,-299.363C275.585,-267.062 303.461,-196.053 320.372,-152.975"/>
<polygon fill="black" stroke="black" points="323.715,-154.036 324.111,-143.449 317.199,-151.478 323.715,-154.036"/>
</g>
<!-- taylor -->
<g id="node8" class="node"><title>taylor</title>
<ellipse fill="none" stroke="black" cx="168.255" cy="-116.61" rx="60.2083" ry="26.7407"/>
<text text-anchor="middle" x="168.255" y="-120.41" font-family="Times,serif" font-size="14.00">Taylor</text>
<text text-anchor="middle" x="168.255" y="-105.41" font-family="Times,serif" font-size="14.00">Polynomials</text>
</g>
<!-- derivatives&#45;&gt;taylor -->
<g id="edge7" class="edge"><title>derivatives&#45;&gt;taylor</title>
<path fill="none" stroke="black" d="M257.509,-299.167C258.728,-272.077 257.979,-218.438 237.255,-179.48 230.444,-166.678 219.877,-155.222 209.043,-145.751"/>
<polygon fill="black" stroke="black" points="211.089,-142.901 201.156,-139.214 206.622,-148.29 211.089,-142.901"/>
</g>
<!-- geometry_and_trig -->
<g id="node2" class="node"><title>geometry_and_trig</title>
<ellipse fill="none" stroke="black" cx="413.255" cy="-317.304" rx="50.41" ry="26.7407"/>
<text text-anchor="middle" x="413.255" y="-321.104" font-family="Times,serif" font-size="14.00">Geometry</text>
<text text-anchor="middle" x="413.255" y="-306.104" font-family="Times,serif" font-size="14.00">and Trig</text>
</g>
<!-- geometry_and_trig&#45;&gt;more_geometry_and_trig -->
<g id="edge1" class="edge"><title>geometry_and_trig&#45;&gt;more_geometry_and_trig</title>
<path fill="none" stroke="black" d="M402.696,-290.977C399.028,-282.178 394.8,-272.036 390.684,-262.164"/>
<polygon fill="black" stroke="black" points="393.873,-260.717 386.795,-252.834 387.412,-263.41 393.873,-260.717"/>
</g>
<!-- eulerformula -->
<g id="node9" class="node"><title>eulerformula</title>
<ellipse fill="red" stroke="black" cx="334.255" cy="-26.8701" rx="98.0761" ry="26.7407"/>
<text text-anchor="middle" x="334.255" y="-30.6701" font-family="Times,serif" font-size="14.00">Head Explosion Zone:</text>
<text text-anchor="middle" x="334.255" y="-15.6701" font-family="Times,serif" font-size="14.00">Euler&#39;s Formula</text>
</g>
<!-- geometry_and_trig&#45;&gt;eulerformula -->
<g id="edge9" class="edge"><title>geometry_and_trig&#45;&gt;eulerformula</title>
<path fill="none" stroke="black" d="M423.807,-290.959C440.352,-246.971 467.012,-154.959 431.255,-89.7401 423.342,-75.3084 410.474,-63.7572 396.661,-54.7273"/>
<polygon fill="black" stroke="black" points="398.333,-51.6476 387.973,-49.4276 394.687,-57.6234 398.333,-51.6476"/>
</g>
<!-- more_integrals -->
<g id="node4" class="node"><title>more_integrals</title>
<ellipse fill="none" stroke="black" cx="45.2548" cy="-116.61" rx="45.011" ry="26.7407"/>
<text text-anchor="middle" x="45.2548" y="-120.41" font-family="Times,serif" font-size="14.00">More</text>
<text text-anchor="middle" x="45.2548" y="-105.41" font-family="Times,serif" font-size="14.00">Integrals</text>
</g>
<!-- integrals&#45;&gt;more_integrals -->
<g id="edge6" class="edge"><title>integrals&#45;&gt;more_integrals</title>
<path fill="none" stroke="black" d="M55.1646,-198.826C53.6588,-186.485 51.571,-169.374 49.6999,-154.04"/>
<polygon fill="black" stroke="black" points="53.1345,-153.29 48.4489,-143.788 46.186,-154.138 53.1345,-153.29"/>
</g>
<!-- integrals&#45;&gt;taylor -->
<g id="edge11" class="edge"><title>integrals&#45;&gt;taylor</title>
<path fill="none" stroke="none" d="M74.5986,-200.59C90.5319,-186.473 114.597,-165.151 134.343,-147.656"/>
<polygon fill="none" stroke="none" points="136.786,-150.168 141.949,-140.917 132.143,-144.929 136.786,-150.168"/>
</g>
<!-- explog&#45;&gt;eulerformula -->
<g id="edge10" class="edge"><title>explog&#45;&gt;eulerformula</title>
<path fill="none" stroke="black" d="M334.255,-89.2852C334.255,-81.3185 334.255,-72.4275 334.255,-63.9391"/>
<polygon fill="black" stroke="black" points="337.755,-63.874 334.255,-53.874 330.755,-63.8741 337.755,-63.874"/>
</g>
<!-- taylor&#45;&gt;eulerformula -->
<g id="edge8" class="edge"><title>taylor&#45;&gt;eulerformula</title>
<path fill="none" stroke="black" d="M206.339,-95.4808C228.576,-83.7269 256.97,-68.7193 281.354,-55.8308"/>
<polygon fill="black" stroke="black" points="283.277,-58.7735 290.483,-51.0061 280.006,-52.5848 283.277,-58.7735"/>
</g>
</g>
</svg>
